<?xml version="1.0" encoding="UTF-8" standalone="no"?>
<!DOCTYPE svg PUBLIC "-//W3C//DTD SVG 1.1//EN"
 "http://www.w3.org/Graphics/SVG/1.1/DTD/svg11.dtd">
<!-- Generated by graphviz version 2.43.0 (0)
 -->
<!-- Title: %3 Pages: 1 -->
<svg width="1320pt" height="476pt"
 viewBox="0.00 0.00 1319.61 476.00" xmlns="http://www.w3.org/2000/svg" xmlns:xlink="http://www.w3.org/1999/xlink">
<g id="graph0" class="graph" transform="scale(1 1) rotate(0) translate(4 472)">
<title>%3</title>
<polygon fill="white" stroke="transparent" points="-4,4 -4,-472 1315.61,-472 1315.61,4 -4,4"/>
<!-- [root] aws_instance.first_ec2 (expand) -->
<g id="node1" class="node">
<title>[root] aws_instance.first_ec2 (expand)</title>
<polygon fill="none" stroke="black" points="710.78,-324 534.78,-324 534.78,-288 710.78,-288 710.78,-324"/>
<text text-anchor="middle" x="622.78" y="-302.3" font-family="Times,serif" font-size="14.00">aws_instance.first_ec2</text>
</g>
<!-- [root] aws_security_group.web_traffic2 (expand) -->
<g id="node3" class="node">
<title>[root] aws_security_group.web_traffic2 (expand)</title>
<polygon fill="none" stroke="black" points="797.78,-180 547.78,-180 547.78,-144 797.78,-144 797.78,-180"/>
<text text-anchor="middle" x="672.78" y="-158.3" font-family="Times,serif" font-size="14.00">aws_security_group.web_traffic2</text>
</g>
<!-- [root] aws_instance.first_ec2 (expand)&#45;&gt;[root] aws_security_group.web_traffic2 (expand) -->
<g id="edge1" class="edge">
<title>[root] aws_instance.first_ec2 (expand)&#45;&gt;[root] aws_security_group.web_traffic2 (expand)</title>
<path fill="none" stroke="black" d="M613.42,-287.78C604.68,-269.22 594.55,-239.22 605.78,-216 611.55,-204.1 621.42,-194.06 631.85,-186.02"/>
<polygon fill="black" stroke="black" points="634.15,-188.68 640.26,-180.02 630.09,-182.98 634.15,-188.68"/>
</g>
<!-- [root] var.ami&#45;id -->
<g id="node7" class="node">
<title>[root] var.ami&#45;id</title>
<polygon fill="none" stroke="black" points="696.28,-252 615.28,-252 615.28,-216 702.28,-216 702.28,-246 696.28,-252"/>
<polyline fill="none" stroke="black" points="696.28,-252 696.28,-246 "/>
<polyline fill="none" stroke="black" points="702.28,-246 696.28,-246 "/>
<text text-anchor="middle" x="658.78" y="-230.3" font-family="Times,serif" font-size="14.00">var.ami&#45;id</text>
</g>
<!-- [root] aws_instance.first_ec2 (expand)&#45;&gt;[root] var.ami&#45;id -->
<g id="edge2" class="edge">
<title>[root] aws_instance.first_ec2 (expand)&#45;&gt;[root] var.ami&#45;id</title>
<path fill="none" stroke="black" d="M631.68,-287.7C635.78,-279.73 640.73,-270.1 645.28,-261.26"/>
<polygon fill="black" stroke="black" points="648.53,-262.6 649.99,-252.1 642.3,-259.4 648.53,-262.6"/>
</g>
<!-- [root] var.instance_type -->
<g id="node9" class="node">
<title>[root] var.instance_type</title>
<polygon fill="none" stroke="black" points="855.28,-252 720.28,-252 720.28,-216 861.28,-216 861.28,-246 855.28,-252"/>
<polyline fill="none" stroke="black" points="855.28,-252 855.28,-246 "/>
<polyline fill="none" stroke="black" points="861.28,-246 855.28,-246 "/>
<text text-anchor="middle" x="790.78" y="-230.3" font-family="Times,serif" font-size="14.00">var.instance_type</text>
</g>
<!-- [root] aws_instance.first_ec2 (expand)&#45;&gt;[root] var.instance_type -->
<g id="edge3" class="edge">
<title>[root] aws_instance.first_ec2 (expand)&#45;&gt;[root] var.instance_type</title>
<path fill="none" stroke="black" d="M663.88,-287.88C686.95,-278.26 715.92,-266.19 740.35,-256.01"/>
<polygon fill="black" stroke="black" points="741.94,-259.15 749.82,-252.07 739.24,-252.68 741.94,-259.15"/>
</g>
<!-- [root] aws_network_interface.web&#45;eth0 (expand) -->
<g id="node2" class="node">
<title>[root] aws_network_interface.web&#45;eth0 (expand)</title>
<polygon fill="none" stroke="black" points="1133.28,-324 882.28,-324 882.28,-288 1133.28,-288 1133.28,-324"/>
<text text-anchor="middle" x="1007.78" y="-302.3" font-family="Times,serif" font-size="14.00">aws_network_interface.web&#45;eth0</text>
</g>
<!-- [root] aws_subnet.web_subnet (expand) -->
<g id="node4" class="node">
<title>[root] aws_subnet.web_subnet (expand)</title>
<polygon fill="none" stroke="black" points="1091.28,-252 902.28,-252 902.28,-216 1091.28,-216 1091.28,-252"/>
<text text-anchor="middle" x="996.78" y="-230.3" font-family="Times,serif" font-size="14.00">aws_subnet.web_subnet</text>
</g>
<!-- [root] aws_network_interface.web&#45;eth0 (expand)&#45;&gt;[root] aws_subnet.web_subnet (expand) -->
<g id="edge4" class="edge">
<title>[root] aws_network_interface.web&#45;eth0 (expand)&#45;&gt;[root] aws_subnet.web_subnet (expand)</title>
<path fill="none" stroke="black" d="M1005.07,-287.7C1003.85,-279.98 1002.4,-270.71 1001.04,-262.11"/>
<polygon fill="black" stroke="black" points="1004.48,-261.44 999.47,-252.1 997.57,-262.53 1004.48,-261.44"/>
</g>
<!-- [root] provider[&quot;registry.terraform.io/hashicorp/aws&quot;] -->
<g id="node6" class="node">
<title>[root] provider[&quot;registry.terraform.io/hashicorp/aws&quot;]</title>
<polygon fill="none" stroke="black" points="779.78,-108 454.52,-90 779.78,-72 1105.05,-90 779.78,-108"/>
<text text-anchor="middle" x="779.78" y="-86.3" font-family="Times,serif" font-size="14.00">provider[&quot;registry.terraform.io/hashicorp/aws&quot;]</text>
</g>
<!-- [root] aws_security_group.web_traffic2 (expand)&#45;&gt;[root] provider[&quot;registry.terraform.io/hashicorp/aws&quot;] -->
<g id="edge5" class="edge">
<title>[root] aws_security_group.web_traffic2 (expand)&#45;&gt;[root] provider[&quot;registry.terraform.io/hashicorp/aws&quot;]</title>
<path fill="none" stroke="black" d="M698.96,-143.88C713.44,-134.4 731.57,-122.54 746.99,-112.45"/>
<polygon fill="black" stroke="black" points="749.26,-115.15 755.71,-106.75 745.42,-109.3 749.26,-115.15"/>
</g>
<!-- [root] aws_vpc.web_vpc (expand) -->
<g id="node5" class="node">
<title>[root] aws_vpc.web_vpc (expand)</title>
<polygon fill="none" stroke="black" points="1000.28,-180 859.28,-180 859.28,-144 1000.28,-144 1000.28,-180"/>
<text text-anchor="middle" x="929.78" y="-158.3" font-family="Times,serif" font-size="14.00">aws_vpc.web_vpc</text>
</g>
<!-- [root] aws_subnet.web_subnet (expand)&#45;&gt;[root] aws_vpc.web_vpc (expand) -->
<g id="edge6" class="edge">
<title>[root] aws_subnet.web_subnet (expand)&#45;&gt;[root] aws_vpc.web_vpc (expand)</title>
<path fill="none" stroke="black" d="M980.22,-215.7C972.11,-207.22 962.2,-196.86 953.31,-187.58"/>
<polygon fill="black" stroke="black" points="955.6,-184.91 946.16,-180.1 950.54,-189.75 955.6,-184.91"/>
</g>
<!-- [root] aws_vpc.web_vpc (expand)&#45;&gt;[root] provider[&quot;registry.terraform.io/hashicorp/aws&quot;] -->
<g id="edge7" class="edge">
<title>[root] aws_vpc.web_vpc (expand)&#45;&gt;[root] provider[&quot;registry.terraform.io/hashicorp/aws&quot;]</title>
<path fill="none" stroke="black" d="M893.09,-143.88C871.54,-133.82 844.21,-121.07 821.8,-110.61"/>
<polygon fill="black" stroke="black" points="823.07,-107.34 812.53,-106.28 820.11,-113.68 823.07,-107.34"/>
</g>
<!-- [root] var.aws_region -->
<g id="node8" class="node">
<title>[root] var.aws_region</title>
<polygon fill="none" stroke="black" points="835.28,-36 718.28,-36 718.28,0 841.28,0 841.28,-30 835.28,-36"/>
<polyline fill="none" stroke="black" points="835.28,-36 835.28,-30 "/>
<polyline fill="none" stroke="black" points="841.28,-30 835.28,-30 "/>
<text text-anchor="middle" x="779.78" y="-14.3" font-family="Times,serif" font-size="14.00">var.aws_region</text>
</g>
<!-- [root] provider[&quot;registry.terraform.io/hashicorp/aws&quot;]&#45;&gt;[root] var.aws_region -->
<g id="edge12" class="edge">
<title>[root] provider[&quot;registry.terraform.io/hashicorp/aws&quot;]&#45;&gt;[root] var.aws_region</title>
<path fill="none" stroke="black" d="M779.78,-71.7C779.78,-63.98 779.78,-54.71 779.78,-46.11"/>
<polygon fill="black" stroke="black" points="783.28,-46.1 779.78,-36.1 776.28,-46.1 783.28,-46.1"/>
</g>
<!-- [root] output.ec2&#45;public_ip (expand) -->
<g id="node10" class="node">
<title>[root] output.ec2&#45;public_ip (expand)</title>
<ellipse fill="none" stroke="black" cx="176.78" cy="-378" rx="176.57" ry="18"/>
<text text-anchor="middle" x="176.78" y="-374.3" font-family="Times,serif" font-size="14.00">[root] output.ec2&#45;public_ip (expand)</text>
</g>
<!-- [root] output.ec2&#45;public_ip (expand)&#45;&gt;[root] aws_instance.first_ec2 (expand) -->
<g id="edge8" class="edge">
<title>[root] output.ec2&#45;public_ip (expand)&#45;&gt;[root] aws_instance.first_ec2 (expand)</title>
<path fill="none" stroke="black" d="M268.66,-362.58C343.21,-350.88 448.09,-334.42 524.36,-322.45"/>
<polygon fill="black" stroke="black" points="525.12,-325.87 534.45,-320.86 524.03,-318.96 525.12,-325.87"/>
</g>
<!-- [root] output.instance_id (expand) -->
<g id="node11" class="node">
<title>[root] output.instance_id (expand)</title>
<ellipse fill="none" stroke="black" cx="540.78" cy="-378" rx="168.97" ry="18"/>
<text text-anchor="middle" x="540.78" y="-374.3" font-family="Times,serif" font-size="14.00">[root] output.instance_id (expand)</text>
</g>
<!-- [root] output.instance_id (expand)&#45;&gt;[root] aws_instance.first_ec2 (expand) -->
<g id="edge9" class="edge">
<title>[root] output.instance_id (expand)&#45;&gt;[root] aws_instance.first_ec2 (expand)</title>
<path fill="none" stroke="black" d="M560.63,-360.05C570.93,-351.26 583.68,-340.38 594.95,-330.76"/>
<polygon fill="black" stroke="black" points="597.5,-333.19 602.83,-324.03 592.95,-327.86 597.5,-333.19"/>
</g>
<!-- [root] provider[&quot;registry.terraform.io/hashicorp/aws&quot;] (close) -->
<g id="node12" class="node">
<title>[root] provider[&quot;registry.terraform.io/hashicorp/aws&quot;] (close)</title>
<ellipse fill="none" stroke="black" cx="1019.78" cy="-378" rx="291.65" ry="18"/>
<text text-anchor="middle" x="1019.78" y="-374.3" font-family="Times,serif" font-size="14.00">[root] provider[&quot;registry.terraform.io/hashicorp/aws&quot;] (close)</text>
</g>
<!-- [root] provider[&quot;registry.terraform.io/hashicorp/aws&quot;] (close)&#45;&gt;[root] aws_instance.first_ec2 (expand) -->
<g id="edge10" class="edge">
<title>[root] provider[&quot;registry.terraform.io/hashicorp/aws&quot;] (close)&#45;&gt;[root] aws_instance.first_ec2 (expand)</title>
<path fill="none" stroke="black" d="M928.21,-360.85C866.15,-349.91 784.22,-335.46 720.84,-324.29"/>
<polygon fill="black" stroke="black" points="721.29,-320.81 710.83,-322.52 720.07,-327.71 721.29,-320.81"/>
</g>
<!-- [root] provider[&quot;registry.terraform.io/hashicorp/aws&quot;] (close)&#45;&gt;[root] aws_network_interface.web&#45;eth0 (expand) -->
<g id="edge11" class="edge">
<title>[root] provider[&quot;registry.terraform.io/hashicorp/aws&quot;] (close)&#45;&gt;[root] aws_network_interface.web&#45;eth0 (expand)</title>
<path fill="none" stroke="black" d="M1016.82,-359.7C1015.5,-351.98 1013.91,-342.71 1012.43,-334.11"/>
<polygon fill="black" stroke="black" points="1015.86,-333.37 1010.72,-324.1 1008.96,-334.55 1015.86,-333.37"/>
</g>
<!-- [root] root -->
<g id="node13" class="node">
<title>[root] root</title>
<ellipse fill="none" stroke="black" cx="540.78" cy="-450" rx="58.49" ry="18"/>
<text text-anchor="middle" x="540.78" y="-446.3" font-family="Times,serif" font-size="14.00">[root] root</text>
</g>
<!-- [root] root&#45;&gt;[root] output.ec2&#45;public_ip (expand) -->
<g id="edge13" class="edge">
<title>[root] root&#45;&gt;[root] output.ec2&#45;public_ip (expand)</title>
<path fill="none" stroke="black" d="M492.45,-439.7C434.73,-428.6 337.04,-409.82 265.59,-396.08"/>
<polygon fill="black" stroke="black" points="266.17,-392.63 255.69,-394.17 264.85,-399.5 266.17,-392.63"/>
</g>
<!-- [root] root&#45;&gt;[root] output.instance_id (expand) -->
<g id="edge14" class="edge">
<title>[root] root&#45;&gt;[root] output.instance_id (expand)</title>
<path fill="none" stroke="black" d="M540.78,-431.7C540.78,-423.98 540.78,-414.71 540.78,-406.11"/>
<polygon fill="black" stroke="black" points="544.28,-406.1 540.78,-396.1 537.28,-406.1 544.28,-406.1"/>
</g>
<!-- [root] root&#45;&gt;[root] provider[&quot;registry.terraform.io/hashicorp/aws&quot;] (close) -->
<g id="edge15" class="edge">
<title>[root] root&#45;&gt;[root] provider[&quot;registry.terraform.io/hashicorp/aws&quot;] (close)</title>
<path fill="none" stroke="black" d="M592.5,-441.44C666.06,-430.69 802.94,-410.69 901.99,-396.21"/>
<polygon fill="black" stroke="black" points="902.67,-399.65 912.06,-394.74 901.66,-392.73 902.67,-399.65"/>
</g>
</g>
</svg>
